{
  "source": "C:\\Users\\Peter\\Desktop\\stuff\\MIUN\\quantitative_research\\video_compression\\videos\\HEVC_CLASS_B\\ParkScene_1920x1080_24.y4m",
  "output": "C:\\Users\\Peter\\Desktop\\stuff\\MIUN\\quantitative_research\\video_compression\\compressed_videos\\HEVC_CLASS_B\\av1\\12\\ParkScene_1920x1080_24_av1.mkv",
  "codec": "av1",
  "ok": "Input #0, yuv4mpegpipe, from 'C:\\Users\\Peter\\Desktop\\stuff\\MIUN\\quantitative_research\\video_compression\\videos\\HEVC_CLASS_B\\ParkScene_1920x1080_24.y4m':\n  Duration: 00:00:10.00, start: 0.000000, bitrate: 597198 kb/s\n  Stream #0:0: Video: rawvideo (I420 / 0x30323449), yuv420p(progressive), 1920x1080, 24 fps, 24 tbr, 24 tbn\n[out#0/matroska @ 0000029573d19380] Codec AVOption b:a (set bitrate (in bits/s)) has not been used for any stream. The most likely reason is either wrong type (e.g. a video option with no video streams) or that it is a private option of some decoder which was not actually used for any stream.\nStream mapping:\n  Stream #0:0 -> #0:0 (rawvideo (native) -> av1 (libsvtav1))\nPress [q] to stop, [?] for help\nSvt[info]: -------------------------------------------\nSvt[info]: SVT [version]:\tSVT-AV1 Encoder Lib v3.1.0-19-g6ecfe8ec\nSvt[info]: SVT [build]  :\tGCC 15.2.0\t 64 bit\nSvt[info]: LIB Build date: Aug 17 2025 11:37:13\nSvt[info]: -------------------------------------------\n[libsvtav1 @ 0000029573d1c4c0] Specified chroma sample location center is unsupported on the AV1 bit stream level. Usage of a container that allows passing this information - such as Matroska - is recommended.\nSvt[info]: Level of Parallelism: 5\nSvt[info]: Number of PPCS 93\nSvt[info]: [asm level on system : up to avx2]\nSvt[info]: [asm level selected : up to avx2]\nSvt[info]: -------------------------------------------\nSvt[info]: SVT [config]: main profile\ttier (auto)\tlevel (auto)\nSvt[info]: SVT [config]: width / height / fps numerator / fps denominator \t\t: 1920 / 1080 / 24 / 1\nSvt[info]: SVT [config]: bit-depth / color format \t\t\t\t\t: 8 / YUV420\nSvt[info]: SVT [config]: preset / tune / pred struct \t\t\t\t\t: 4 / PSNR / random access\nSvt[info]: SVT [config]: gop size / mini-gop size / key-frame type \t\t\t: 161 / 16 / key frame\nSvt[info]: SVT [config]: BRC mode / target bitrate (kbps)\t\t\t\t: VBR / 12000 \nSvt[info]: SVT [config]: AQ mode / Variance Boost \t\t\t\t\t: 2 / 0\nSvt[info]: SVT [config]: sharpness / luminance-based QP bias \t\t\t\t: 0 / 0\nSvt[info]: SVT [config]: QP scale compress strength \t\t\t\t\t: 0\nSvt[info]: -------------------------------------------\nOutput #0, matroska, to 'C:\\Users\\Peter\\Desktop\\stuff\\MIUN\\quantitative_research\\video_compression\\compressed_videos\\HEVC_CLASS_B\\av1\\12\\ParkScene_1920x1080_24_av1.mkv':\n  Metadata:\n    encoder         : Lavf62.3.100\n  Stream #0:0: Video: av1 (AV01 / 0x31305641), yuv420p(tv, progressive), 1920x1080, q=2-31, 12000 kb/s, 24 fps, 1k tbn\n    Metadata:\n      encoder         : Lavc62.11.100 libsvtav1\n    Side data:\n      cpb: bitrate max/min/avg: 0/0/12000000 buffer size: 12000000 vbv_delay: N/A\nframe=    0 fps=0.0 q=0.0 size=       0KiB time=N/A bitrate=N/A speed=N/A elapsed=0:00:01.17    \nframe=    0 fps=0.0 q=0.0 size=       0KiB time=N/A bitrate=N/A speed=N/A elapsed=0:00:01.74    \nframe=    0 fps=0.0 q=0.0 size=       0KiB time=N/A bitrate=N/A speed=N/A elapsed=0:00:02.31    \nframe=    0 fps=0.0 q=0.0 size=       0KiB time=N/A bitrate=N/A speed=N/A elapsed=0:00:02.85    \nframe=    0 fps=0.0 q=0.0 size=       0KiB time=N/A bitrate=N/A speed=N/A elapsed=0:00:03.39    \nframe=    0 fps=0.0 q=0.0 size=       0KiB time=N/A bitrate=N/A speed=N/A elapsed=0:00:03.94    \nframe=    0 fps=0.0 q=0.0 size=       0KiB time=N/A bitrate=N/A speed=N/A elapsed=0:00:04.49    \nframe=    0 fps=0.0 q=0.0 size=       0KiB time=N/A bitrate=N/A speed=N/A elapsed=0:00:05.03    \nframe=    0 fps=0.0 q=0.0 size=       0KiB time=N/A bitrate=N/A speed=N/A elapsed=0:00:05.61    \nframe=    1 fps=0.2 q=4.0 size=       1KiB time=00:00:00.00 bitrate=N/A speed=   0x elapsed=0:00:06.18    \nframe=    1 fps=0.1 q=4.0 size=       1KiB time=00:00:00.00 bitrate=N/A speed=   0x elapsed=0:00:06.72    \nframe=    1 fps=0.1 q=4.0 size=       1KiB time=00:00:00.00 bitrate=N/A speed=   0x elapsed=0:00:07.26    \nframe=    1 fps=0.1 q=4.0 size=       1KiB time=00:00:00.00 bitrate=N/A speed=   0x elapsed=0:00:07.84    \nframe=    3 fps=0.4 q=13.0 size=       1KiB time=00:00:00.08 bitrate=  54.0kbits/s speed=0.00995x elapsed=0:00:08.37    \nframe=    7 fps=0.8 q=12.0 size=       1KiB time=00:00:00.25 bitrate=  18.0kbits/s speed=0.0281x elapsed=0:00:08.90    \nframe=    8 fps=0.8 q=13.0 size=       1KiB time=00:00:00.29 bitrate=  15.4kbits/s speed=0.0308x elapsed=0:00:09.45    \nframe=   10 fps=1.0 q=12.0 size=       1KiB time=00:00:00.33 bitrate=  13.5kbits/s speed=0.0332x elapsed=0:00:10.03    \nframe=   11 fps=1.0 q=11.0 size=       1KiB time=00:00:00.41 bitrate=  10.8kbits/s speed=0.0394x elapsed=0:00:10.58    \nframe=   16 fps=1.4 q=14.0 size=       1KiB time=00:00:00.58 bitrate=   7.7kbits/s speed=0.0525x elapsed=0:00:11.11    \nframe=   19 fps=1.6 q=14.0 size=       1KiB time=00:00:00.75 bitrate=   6.0kbits/s speed=0.0643x elapsed=0:00:11.66    \nframe=   21 fps=1.7 q=12.0 size=       1KiB time=00:00:00.83 bitrate=   5.4kbits/s speed=0.0684x elapsed=0:00:12.18    \nframe=   23 fps=1.8 q=12.0 size=       1KiB time=00:00:00.91 bitrate=   4.9kbits/s speed=0.0722x elapsed=0:00:12.70    \nframe=   26 fps=2.0 q=16.0 size=       1KiB time=00:00:01.04 bitrate=   4.3kbits/s speed=0.0785x elapsed=0:00:13.26    \nframe=   27 fps=2.0 q=14.0 size=       1KiB time=00:00:01.08 bitrate=   4.2kbits/s speed=0.0783x elapsed=0:00:13.84    \nframe=   32 fps=2.2 q=15.0 size=       1KiB time=00:00:01.29 bitrate=   3.5kbits/s speed=0.0898x elapsed=0:00:14.37    \nframe=   35 fps=2.3 q=15.0 size=       1KiB time=00:00:01.41 bitrate=   3.2kbits/s speed=0.0948x elapsed=0:00:14.93    \nframe=   38 fps=2.5 q=14.0 size=       1KiB time=00:00:01.54 bitrate=   2.9kbits/s speed=0.0996x elapsed=0:00:15.47    \nframe=   41 fps=2.6 q=11.0 size=       1KiB time=00:00:01.62 bitrate=   2.8kbits/s speed=0.101x elapsed=0:00:16.01    \nframe=   43 fps=2.6 q=14.0 size=       1KiB time=00:00:01.75 bitrate=   2.6kbits/s speed=0.106x elapsed=0:00:16.58    \nframe=   48 fps=2.8 q=18.0 size=       1KiB time=00:00:01.95 bitrate=   2.3kbits/s speed=0.114x elapsed=0:00:17.19    \nframe=   51 fps=2.9 q=17.0 size=       1KiB time=00:00:02.08 bitrate=   2.2kbits/s speed=0.118x elapsed=0:00:17.72    \nframe=   54 fps=3.0 q=18.0 size=       1KiB time=00:00:02.20 bitrate=   2.0kbits/s speed=0.121x elapsed=0:00:18.24    \nframe=   57 fps=3.0 q=12.0 size=       1KiB time=00:00:02.33 bitrate=   1.9kbits/s speed=0.124x elapsed=0:00:18.76    \nframe=   60 fps=3.1 q=19.0 size=       1KiB time=00:00:02.45 bitrate=   1.8kbits/s speed=0.127x elapsed=0:00:19.31    \nframe=   64 fps=3.2 q=19.0 size=       1KiB time=00:00:02.58 bitrate=   1.7kbits/s speed=0.13x elapsed=0:00:19.88    \nframe=   67 fps=3.3 q=18.0 size=       1KiB time=00:00:02.75 bitrate=   1.6kbits/s speed=0.135x elapsed=0:00:20.42    \nframe=   70 fps=3.3 q=19.0 size=    5376KiB time=00:00:02.87 bitrate=15318.3kbits/s speed=0.137x elapsed=0:00:20.93    \nframe=   73 fps=3.4 q=13.0 size=    5376KiB time=00:00:03.00 bitrate=14680.1kbits/s speed=0.14x elapsed=0:00:21.49    \nframe=   76 fps=3.4 q=19.0 size=    5376KiB time=00:00:03.08 bitrate=14283.3kbits/s speed=0.14x elapsed=0:00:22.04    \nframe=   79 fps=3.5 q=16.0 size=    5376KiB time=00:00:03.25 bitrate=13550.8kbits/s speed=0.144x elapsed=0:00:22.62    \nframe=   83 fps=3.6 q=18.0 size=    5376KiB time=00:00:03.41 bitrate=12889.8kbits/s speed=0.147x elapsed=0:00:23.19    \nframe=   86 fps=3.6 q=19.0 size=    5376KiB time=00:00:03.54 bitrate=12434.9kbits/s speed=0.149x elapsed=0:00:23.73    \nframe=   89 fps=3.7 q=13.0 size=    5376KiB time=00:00:03.66 bitrate=12011.0kbits/s speed=0.151x elapsed=0:00:24.31    \nframe=   91 fps=3.7 q=16.0 size=    5376KiB time=00:00:03.75 bitrate=11744.1kbits/s speed=0.151x elapsed=0:00:24.86    \nframe=   94 fps=3.7 q=19.0 size=    5376KiB time=00:00:03.87 bitrate=11365.2kbits/s speed=0.152x elapsed=0:00:25.42    \nframe=   99 fps=3.8 q=18.0 size=    5376KiB time=00:00:04.08 bitrate=10785.4kbits/s speed=0.157x elapsed=0:00:26.00    \nframe=  102 fps=3.8 q=19.0 size=    5376KiB time=00:00:04.20 bitrate=10465.0kbits/s speed=0.158x elapsed=0:00:26.56    \nframe=  105 fps=3.9 q=13.0 size=    5376KiB time=00:00:04.33 bitrate=10163.1kbits/s speed=0.16x elapsed=0:00:27.11    \nframe=  108 fps=3.9 q=19.0 size=    5376KiB time=00:00:04.45 bitrate=9878.2kbits/s speed=0.161x elapsed=0:00:27.75    \nframe=  113 fps=4.0 q=7.0 size=    5376KiB time=00:00:04.66 bitrate=9437.2kbits/s speed=0.165x elapsed=0:00:28.33    \nframe=  116 fps=4.0 q=19.0 size=    5376KiB time=00:00:04.79 bitrate=9191.0kbits/s speed=0.166x elapsed=0:00:28.87    \nframe=  119 fps=4.0 q=18.0 size=    5376KiB time=00:00:04.91 bitrate=8957.3kbits/s speed=0.167x elapsed=0:00:29.39    \nframe=  123 fps=4.1 q=17.0 size=    5376KiB time=00:00:05.04 bitrate=8735.2kbits/s speed=0.168x elapsed=0:00:29.93    \nframe=  125 fps=4.1 q=14.0 size=    5376KiB time=00:00:05.12 bitrate=8593.2kbits/s speed=0.168x elapsed=0:00:30.50    \nframe=  130 fps=4.2 q=19.0 size=    5376KiB time=00:00:05.33 bitrate=8257.5kbits/s speed=0.171x elapsed=0:00:31.10    \nframe=  132 fps=4.2 q=19.0 size=    5376KiB time=00:00:05.45 bitrate=8068.4kbits/s speed=0.172x elapsed=0:00:31.67    \nframe=  135 fps=4.2 q=15.0 size=    5376KiB time=00:00:05.58 bitrate=7887.8kbits/s speed=0.173x elapsed=0:00:32.23    \nframe=  138 fps=4.2 q=18.0 size=    5376KiB time=00:00:05.70 bitrate=7715.1kbits/s speed=0.174x elapsed=0:00:32.89    \nframe=  142 fps=4.2 q=18.0 size=    5376KiB time=00:00:05.87 bitrate=7496.2kbits/s speed=0.175x elapsed=0:00:33.48    \nframe=  147 fps=4.3 q=18.0 size=    5376KiB time=00:00:06.08 bitrate=7239.5kbits/s speed=0.179x elapsed=0:00:34.04    \nframe=  151 fps=4.4 q=18.0 size=    5376KiB time=00:00:06.25 bitrate=7046.4kbits/s speed=0.18x elapsed=0:00:34.63    \nframe=  153 fps=4.3 q=15.0 size=    5376KiB time=00:00:06.33 bitrate=6953.7kbits/s speed=0.18x elapsed=0:00:35.25    \nframe=  157 fps=4.4 q=15.0 size=    5376KiB time=00:00:06.41 bitrate=6863.4kbits/s speed=0.179x elapsed=0:00:35.85    \nframe=  170 fps=4.7 q=14.0 size=    9728KiB time=00:00:07.04 bitrate=11317.2kbits/s speed=0.193x elapsed=0:00:36.40    \nframe=  172 fps=4.7 q=15.0 size=    9728KiB time=00:00:07.04 bitrate=11317.2kbits/s speed=0.19x elapsed=0:00:36.97    \nframe=  174 fps=4.6 q=14.0 size=    9728KiB time=00:00:07.20 bitrate=11055.5kbits/s speed=0.192x elapsed=0:00:37.55    \nframe=  178 fps=4.7 q=8.0 size=    9728KiB time=00:00:07.37 bitrate=10805.7kbits/s speed=0.193x elapsed=0:00:38.14    \nframe=  182 fps=4.7 q=13.0 size=    9728KiB time=00:00:07.54 bitrate=10566.9kbits/s speed=0.195x elapsed=0:00:38.65    \nframe=  186 fps=4.7 q=11.0 size=    9728KiB time=00:00:07.70 bitrate=10338.4kbits/s speed=0.197x elapsed=0:00:39.21    \nframe=  188 fps=4.7 q=13.0 size=    9728KiB time=00:00:07.79 bitrate=10227.8kbits/s speed=0.196x elapsed=0:00:39.73    \nframe=  190 fps=4.7 q=10.0 size=    9728KiB time=00:00:07.87 bitrate=10119.6kbits/s speed=0.195x elapsed=0:00:40.32    \nframe=  194 fps=4.7 q=6.0 size=    9728KiB time=00:00:08.04 bitrate=9909.9kbits/s speed=0.197x elapsed=0:00:40.90    \nframe=  198 fps=4.8 q=12.0 size=    9728KiB time=00:00:08.20 bitrate=9708.6kbits/s speed=0.198x elapsed=0:00:41.46    \nframe=  200 fps=4.8 q=9.0 size=    9728KiB time=00:00:08.29 bitrate=9611.1kbits/s speed=0.197x elapsed=0:00:42.02    \nframe=  202 fps=4.7 q=10.0 size=    9728KiB time=00:00:08.37 bitrate=9515.4kbits/s speed=0.197x elapsed=0:00:42.60    \nframe=  206 fps=4.8 q=11.0 size=    9728KiB time=00:00:08.54 bitrate=9329.8kbits/s speed=0.198x elapsed=0:00:43.22    \nframe=  208 fps=4.8 q=14.0 size=    9728KiB time=00:00:08.62 bitrate=9239.6kbits/s speed=0.197x elapsed=0:00:43.77    \nframe=  212 fps=4.8 q=14.0 size=    9728KiB time=00:00:08.79 bitrate=9064.5kbits/s speed=0.198x elapsed=0:00:44.31    \nframe=  216 fps=4.8 q=14.0 size=    9728KiB time=00:00:08.95 bitrate=8895.8kbits/s speed= 0.2x elapsed=0:00:44.84    \nframe=  218 fps=4.8 q=13.0 size=    9728KiB time=00:00:09.04 bitrate=8813.8kbits/s speed=0.199x elapsed=0:00:45.38    \nframe=  222 fps=4.8 q=14.0 size=    9728KiB time=00:00:09.20 bitrate=8654.3kbits/s speed=0.201x elapsed=0:00:45.92    \nframe=  232 fps=5.0 q=14.0 size=   14848KiB time=00:00:09.62 bitrate=12637.4kbits/s speed=0.207x elapsed=0:00:46.45    \n[out#0/matroska @ 0000029573d19380] video:15282KiB audio:0KiB subtitle:0KiB other streams:0KiB global headers:0KiB muxing overhead: 0.011949%\nframe=  240 fps=5.2 q=11.0 Lsize=   15284KiB time=00:00:09.95 bitrate=12573.3kbits/s speed=0.214x elapsed=0:00:46.49    \n",
  "seconds": 47.176321506500244,
  "probe_out": {}
}